<?xml version="1.0" standalone="no"?>
<!DOCTYPE svg PUBLIC "-//W3C//DTD SVG 20010904//EN"
 "http://www.w3.org/TR/2001/REC-SVG-20010904/DTD/svg10.dtd">
<svg version="1.0" xmlns="http://www.w3.org/2000/svg"
 width="518.000000pt" height="518.000000pt" viewBox="0 0 518.000000 518.000000"
 preserveAspectRatio="xMidYMid meet">
<metadata>
Created by potrace 1.14, written by Peter Selinger 2001-2017
</metadata>
<g transform="translate(0.000000,518.000000) scale(0.100000,-0.100000)"
fill="#000000" stroke="none">
<path d="M2270 5159 c-316 -41 -563 -116 -839 -255 -146 -73 -152 -76 -291
-169 -110 -74 -111 -75 -224 -169 -283 -237 -545 -587 -693 -926 -44 -100 -99
-245 -108 -283 -3 -12 -18 -70 -34 -129 -16 -59 -32 -124 -35 -145 -3 -21 -8
-52 -11 -69 -23 -131 -32 -271 -30 -459 2 -115 6 -230 9 -255 51 -359 128
-613 275 -895 293 -566 769 -995 1365 -1229 188 -75 360 -118 641 -161 66 -10
445 -14 525 -5 152 17 187 22 276 40 176 36 301 74 455 135 171 69 379 179
476 251 17 13 34 24 38 24 3 0 11 5 18 10 7 6 41 33 77 61 137 107 291 250
385 359 185 213 349 486 458 760 49 123 121 375 132 462 4 29 8 55 10 58 2 3
7 33 10 65 4 33 9 69 12 80 2 11 6 110 8 220 3 182 -3 311 -19 405 -3 19 -8
51 -10 71 -8 64 -55 262 -85 354 -76 241 -196 487 -329 680 -304 441 -711 765
-1206 960 -184 72 -378 122 -611 156 -136 20 -490 19 -645 -2z"/>
</g>
</svg>
